#!OML:ASF F:\VICON\USERDATA\INSTALL\rory3\rory3.ASF
:FULLY-SPECIFIED
:DEGREES
551
root -0.107117 16.8896 16.9061 -160.027 -28.9715 -176.938
lowerback -13.8788 1.74413 0.909201
upperback -8.09586 1.24873 2.3512
thorax -0.774007 0.242765 2.10571
lowerneck -14.561 5.62778 5.72324
upperneck 42.3255 2.91342 -0.259155
head 18.5879 0.775767 -1.01332
rclavicle 1.55301e-015 5.56597e-015
rhumerus -65.854 32.5577 -110.471
rradius 35.9768
rwrist -34.0472
rhand 25.0257 2.06928
rfingers 7.12502
rthumb 49.1848 -19.5712
lclavicle 1.55301e-015 5.56597e-015
lhumerus -63.9248 -20.5469 104.988
lradius 40.0118
lwrist 12.843
lhand 26.5446 19.4004
lfingers 7.12502
lthumb 50.5753 40.3157
rfemur -28.8889 4.76377 34.9268
rtibia 27.9383
rfoot -40.4543 -31.2188
rtoes 40.186
lfemur -22.8202 31.2785 -23.048
ltibia 54.3977
lfoot 25.4511 42.0208
ltoes 30.9958
552
root -0.107882 16.888 16.9206 -159.393 -28.7563 -177.186
lowerback -14.0784 1.74669 0.725849
upperback -8.29967 1.23761 2.25801
thorax -0.886263 0.226253 2.11368
lowerneck -14.9659 5.59585 5.40606
upperneck 41.8507 3.12006 -0.22928
head 18.3966 0.85545 -0.877448
rclavicle -5.02925e-014 -3.69739e-014
rhumerus -66.1826 32.8934 -111.019
rradius 35.978
rwrist -34.3535
rhand 24.7614 2.20756
rfingers 7.12502
rthumb 48.942 -19.5535
lclavicle -5.02925e-014 -3.69739e-014
lhumerus -64.0162 -20.4176 105.02
lradius 39.9496
lwrist 12.8575
lhand 26.5324 19.2727
lfingers 7.12502
lthumb 50.5643 40.194
rfemur -29.6681 5.17022 34.52
rtibia 28.0862
rfoot -40.4502 -31.3029
rtoes 40.3614
lfemur -23.6894 30.9857 -23.865
ltibia 54.4707
lfoot 22.8785 43.3285
ltoes 33.1054
553
root -0.107165 16.8853 16.9222 -159.348 -28.6728 -177.089
lowerback -14.1563 1.78491 0.813519
upperback -8.21755 1.28316 2.24737
thorax -0.756626 0.249075 2.06059
lowerneck -15.8031 5.41943 4.7913
upperneck 41.4961 3.13142 -0.0656066
head 18.3737 0.833643 -0.659426
rclavicle 4.65032e-014 2.8625e-014
rhumerus -65.9519 32.9967 -110.976
rradius 35.8852
rwrist -34.4525
rhand 24.7763 2.29141
rfingers 7.12502
rthumb 48.9557 -19.4628
lclavicle 4.65032e-014 2.8625e-014
lhumerus -63.8055 -20.463 104.978
lradius 39.8374
lwrist 12.7138
lhand 26.4817 19.1837
lfingers 7.12502
lthumb 50.5179 40.1302
rfemur -29.8514 5.3117 34.5712
rtibia 28.1944
rfoot -40.3923 -31.3183
rtoes 40.4689
lfemur -23.8936 31.0659 -23.9107
ltibia 54.5628
lfoot 22.4972 43.4532
ltoes 33.427
554
root -0.104428 16.8907 16.9291 -158.646 -29.0222 -177.189
lowerback -14.6745 1.69094 0.806539
upperback -8.36757 1.11222 2.20225
thorax -0.635572 0.145787 2.00344
lowerneck -16.1682 5.32899 4.48696
upperneck 40.9927 3.28286 -0.128045
head 18.1605 0.883576 -0.582096
rclavicle -1.47846e-014 2.98177e-014
rhumerus -65.7336 32.9471 -110.836
rradius 35.8351
rwrist -34.3648
rhand 24.8586 2.20501
rfingers 7.12502
rthumb 49.0313 -19.5119
lclavicle -1.47846e-014 2.98177e-014
lhumerus -63.7109 -20.4936 104.967
lradius 39.7664
lwrist 12.5939
lhand 26.3316 19.1985
lfingers 7.12502
lthumb 50.3808 40.219
rfemur -30.731 5.39879 34.4287
rtibia 28.308
rfoot -40.5914 -31.4732
rtoes 40.6054
lfemur -24.9406 30.5597 -24.4678
ltibia 54.6817
lfoot 23.3305 43.2002
ltoes 32.6242
555
root -0.0976174 16.891 16.9285 -158.373 -29.0533 -177.249
lowerback -14.7852 1.61562 0.671936
upperback -8.4824 1.00773 2.20069
thorax -0.699191 0.0891487 2.06516
lowerneck -15.9846 5.3708 4.73305
upperneck 40.2451 3.67191 -0.676443
head 17.712 1.04799 -0.786889
rclavicle 1.1045e-014 4.13472e-014
rhumerus -65.8636 32.9666 -111.004
rradius 35.8347
rwrist -34.2282
rhand 24.7554 2.29151
rfingers 7.12502
rthumb 48.9365 -19.4723
lclavicle 1.1045e-014 4.13472e-014
lhumerus -63.865 -20.3311 104.912
lradius 39.7743
lwrist 12.4476
lhand 26.3258 19.1284
lfingers 7.12502
lthumb 50.3755 40.1517
rfemur -31.0763 5.61412 34.328
rtibia 28.4141
rfoot -40.836 -31.5091
rtoes 40.6322
lfemur -25.3344 30.4448 -24.7009
ltibia 54.7213
lfoot 23.8414 42.9755
ltoes 32.0273
556
root -0.0936788 16.8906 16.927 -158.24 -28.9574 -177.438
lowerback -14.7087 1.46492 0.363891
upperback -8.52312 0.844863 2.24373
thorax -0.785202 0.0184274 2.26075
lowerneck -17.8824 5.24325 2.59673
upperneck 41.3196 3.49091 0.84428
head 18.7124 0.820978 0.289363
rclavicle -3.67503e-014 -4.77083e-015
rhumerus -65.9956 33.1538 -111.102
rradius 35.8477
rwrist -34.0438
rhand 24.7444 2.34807
rfingers 7.12502
rthumb 48.9264 -19.4206
lclavicle -3.67503e-014 -4.77083e-015
lhumerus -63.9666 -19.9526 104.774
lradius 39.757
lwrist 12.286
lhand 26.2338 18.8018
lfingers 7.12502
lthumb 50.2915 39.8701
rfemur -31.1763 5.76351 34.1155
rtibia 28.5103
rfoot -40.9605 -31.6419
rtoes 40.3123
lfemur -25.3752 30.5302 -24.9402
ltibia 54.7036
lfoot 23.2209 43.3599
ltoes 32.3697
557
root -0.0947962 16.8944 16.9262 -158.047 -28.8733 -177.791
lowerback -14.6039 1.28386 -0.0146322
upperback -8.52039 0.659431 2.2624
thorax -0.838483 -0.0574173 2.46763
lowerneck -16.8645 5.06717 3.76887
upperneck 39.258 4.00849 -1.16593
head 17.3616 1.04524 -0.731064
rclavicle -2.57985e-014 -2.3059e-014
rhumerus -65.9354 33.3324 -111.003
rradius 35.7774
rwrist -33.7409
rhand 24.8124 2.2082
rfingers 7.12502
rthumb 48.9888 -19.5297
lclavicle -2.57985e-014 -2.3059e-014
lhumerus -63.9614 -19.5201 104.595
lradius 39.8515
lwrist 12.0867
lhand 26.296 18.7446
lfingers 7.12502
lthumb 50.3483 39.7825
rfemur -31.2246 5.6417 33.7947
rtibia 28.5515
rfoot -40.8488 -31.6406
rtoes 40.2871
lfemur -25.3184 30.6192 -25.3252
ltibia 54.6144
lfoot 21.7966 44.1299
ltoes 33.3412
558
root -0.0945974 16.8951 16.9224 -158.241 -28.9775 -177.61
lowerback -14.3636 1.20985 0.181723
upperback -8.54076 0.544226 2.33052
thorax -0.979349 -0.118848 2.41063
lowerneck -17.1129 4.77372 3.38077
upperneck 38.6194 4.00253 -1.5994
head 17.069 0.964468 -0.838598
rclavicle -1.39087e-014 -1.94809e-014
rhumerus -66.1526 33.445 -111.28
rradius 35.7077
rwrist -33.639
rhand 24.7185 2.2761
rfingers 7.12502
rthumb 48.9025 -19.5044
lclavicle -1.39087e-014 -1.94809e-014
lhumerus -64.0957 -19.2811 104.5
lradius 39.9919
lwrist 11.946
lhand 26.3606 18.8661
lfingers 7.12502
lthumb 50.4073 39.8723
rfemur -31.0792 5.47539 34.0519
rtibia 28.5797
rfoot -40.825 -31.5809
rtoes 40.2493
lfemur -25.1226 30.8808 -25.0085
ltibia 54.5697
lfoot 21.3844 44.1651
ltoes 35.0554
559
root -0.0963043 16.8942 16.9178 -158.513 -29.2089 -177.369
lowerback -14.1749 1.16057 0.477817
upperback -8.57996 0.447739 2.35826
thorax -1.11243 -0.177296 2.25881
lowerneck -17.2919 4.38561 2.83372
upperneck 38.1328 3.77365 -1.80611
head 16.8277 0.789472 -0.863197
rclavicle -2.1419e-014 3.97569e-016
rhumerus -66.3974 33.3055 -111.534
rradius 35.6719
rwrist -33.4856
rhand 24.5097 2.42587
rfingers 7.12502
rthumb 48.7106 -19.4485
lclavicle -2.1419e-014 3.97569e-016
lhumerus -64.4462 -19.2731 104.554
lradius 40.277
lwrist 11.9044
lhand 26.4333 19.2688
lfingers 7.12502
lthumb 50.4737 40.2392
rfemur -30.8994 5.30445 34.3436
rtibia 28.6006
rfoot -41.002 -31.4492
rtoes 40.3841
lfemur -24.8196 30.9958 -24.5287
ltibia 54.5243
lfoot 21.0913 44.0646
ltoes 36.5312
560
root -0.0954361 16.8945 16.9119 -158.442 -29.2577 -177.553
lowerback -14.1021 1.14109 0.384114
upperback -8.67565 0.431699 2.18862
thorax -1.25126 -0.187579 2.13222
lowerneck -17.2569 3.92421 2.50106
upperneck 37.5237 3.4053 -2.1401
head 16.4819 0.574637 -1.00606
rclavicle -1.55425e-014 -9.93923e-015
rhumerus -66.4416 32.8534 -111.568
rradius 35.6519
rwrist -33.0772
rhand 24.2976 2.52083
rfingers 7.12502
rthumb 48.5155 -19.4478
lclavicle -1.55425e-014 -9.93923e-015
lhumerus -64.8136 -19.4048 104.512
lradius 40.4743
lwrist 11.8305
lhand 26.4747 19.5163
lfingers 7.12502
lthumb 50.5116 40.4662
rfemur -30.8899 5.56416 34.0441
rtibia 28.5528
rfoot -41.497 -31.3753
rtoes 40.9752
lfemur -24.6983 30.9562 -24.6447
ltibia 54.4895
lfoot 21.5706 43.8885
ltoes 33.8192
561
root -0.0894581 16.8907 16.9042 -158.469 -29.148 -177.639
lowerback -13.8301 1.19376 0.373111
upperback -8.83941 0.500374 1.99061
thorax -1.56947 -0.161107 1.93938
lowerneck -17.1313 3.40788 2.11013
upperneck 36.9092 2.96901 -2.49834
head 16.1163 0.31596 -1.15843
rclavicle -1.86236e-014 3.1408e-014
rhumerus -66.7735 32.6294 -112.023
rradius 35.7387
rwrist -33.1259
rhand 24.0655 2.37759
rfingers 7.12502
rthumb 48.3019 -19.6932
lclavicle -1.86236e-014 3.1408e-014
lhumerus -65.2495 -19.5926 104.482
lradius 40.4612
lwrist 11.7621
lhand 26.5453 19.5693
lfingers 7.12502
lthumb 50.576 40.4843
rfemur -30.7867 5.87332 33.8821
rtibia 28.5162
rfoot -41.7322 -31.3433
rtoes 41.4296
lfemur -24.521 31.1504 -24.6668
ltibia 54.4758
lfoot 20.9397 43.6776
ltoes 36.8465
562
root -0.0787869 16.8827 16.8992 -158.565 -29.1698 -177.555
lowerback -13.6121 1.20671 0.452054
upperback -8.94109 0.508341 1.90755
thorax -1.79122 -0.164555 1.80853
lowerneck -17.2257 2.83596 1.51032
upperneck 36.3955 2.51448 -2.85399
head 15.8582 0.0175659 -1.27264
rclavicle 2.95941e-014 2.0276e-014
rhumerus -66.8927 32.5023 -112.259
rradius 35.7673
rwrist -33.2588
rhand 24.2321 2.05657
rfingers 7.12502
rthumb 48.4552 -19.941
lclavicle 2.95941e-014 2.0276e-014
lhumerus -65.5966 -19.7792 104.493
lradius 40.5572
lwrist 11.8075
lhand 26.5406 19.6787
lfingers 7.12502
lthumb 50.5717 40.596
rfemur -30.6362 6.37904 33.9186
rtibia 28.4804
rfoot -42.3201 -31.3527
rtoes 42.0155
lfemur -24.4009 31.2351 -24.4257
ltibia 54.5442
lfoot 19.1143 44.452
ltoes 37.3119
563
root -0.069544 16.8801 16.8973 -158.465 -29.2121 -177.624
lowerback -13.5667 1.08864 0.316864
upperback -8.96107 0.36557 1.95738
thorax -1.83496 -0.22981 1.92001
lowerneck -17.6368 2.285 0.651473
upperneck 35.9641 2.20032 -3.22938
head 15.7248 -0.261073 -1.32297
rclavicle 2.89107e-014 1.43125e-014
rhumerus -67.0516 32.8698 -112.499
rradius 35.8378
rwrist -33.5068
rhand 24.2062 1.95571
rfingers 7.12502
rthumb 48.4314 -20.0533
lclavicle 2.89107e-014 1.43125e-014
lhumerus -65.5841 -19.6181 104.426
lradius 40.6418
lwrist 11.722
lhand 26.5914 19.8225
lfingers 7.12502
lthumb 50.6181 40.7145
rfemur -30.5987 7.52233 33.6195
rtibia 28.4078
rfoot -43.5699 -31.6144
rtoes 42.9941
lfemur -24.3636 31.0137 -24.3337
ltibia 54.6089
lfoot 13.1666 46.1862
ltoes 40.1836
564
root -0.0664758 16.8824 16.8942 -158.534 -29.3201 -177.353
lowerback -13.5319 1.04716 0.603054
upperback -8.98622 0.274276 2.03292
thorax -1.87445 -0.288756 1.82742
lowerneck -18.0013 1.6793 -0.120974
upperneck 35.4846 1.79275 -3.65147
head 15.5631 -0.56969 -1.42307
rclavicle 6.01199e-014 2.66371e-014
rhumerus -67.2015 33.156 -112.725
rradius 35.856
rwrist -33.6519
rhand 24.1221 1.95604
rfingers 7.12502
rthumb 48.3539 -20.0899
lclavicle 6.01199e-014 2.66371e-014
lhumerus -65.4643 -19.4334 104.262
lradius 40.5507
lwrist 11.5419
lhand 26.5434 19.5585
lfingers 7.12502
lthumb 50.5743 40.4744
rfemur -30.6256 6.66272 34.1716
rtibia 28.324
rfoot -42.4431 -31.6953
rtoes 41.9737
lfemur -24.6765 31.4041 -24.2193
ltibia 54.7294
lfoot 20.2095 44.134
ltoes 35.7015
565
root -0.0674417 16.8847 16.8906 -158.598 -29.4168 -177.184
lowerback -13.5552 1.02114 0.834423
upperback -8.96071 0.215888 2.04552
thorax -1.83081 -0.327018 1.70329
lowerneck -18.2536 0.994841 -0.74893
upperneck 34.9578 1.23059 -4.13551
head 15.3564 -0.929224 -1.59912
rclavicle 1.94809e-014 1.35174e-014
rhumerus -67.5772 33.5289 -113.296
rradius 36.0163
rwrist -34.1408
rhand 23.734 1.97532
rfingers 7.12502
rthumb 47.9964 -20.2392
lclavicle 1.94809e-014 1.35174e-014
lhumerus -65.3412 -19.4113 104.141
lradius 40.3872
lwrist 11.4959
lhand 26.4869 19.0127
lfingers 7.12502
lthumb 50.5227 39.9566
rfemur -30.636 6.75875 34.3338
rtibia 28.2729
rfoot -42.2303 -32.2371
rtoes 41.4552
lfemur -24.7699 31.6283 -24.0939
ltibia 54.7708
lfoot 24.6696 42.1331
ltoes 31.5962
